<?xml version="1.0" encoding="utf-8"?>
<!-- Generator: Adobe Illustrator 16.0.0, SVG Export Plug-In . SVG Version: 6.00 Build 0)  -->
<!DOCTYPE svg PUBLIC "-//W3C//DTD SVG 1.1//EN" "http://www.w3.org/Graphics/SVG/1.1/DTD/svg11.dtd">
<svg version="1.1" id="Layer_1" xmlns="http://www.w3.org/2000/svg" xmlns:xlink="http://www.w3.org/1999/xlink" x="0px" y="0px"
	 width="626.509px" height="165.892px" viewBox="7.2 5.109 626.509 165.892" enable-background="new 7.2 5.109 626.509 165.892"
	 xml:space="preserve">
<g>
	<path fill="#E0B156" d="M280.312,40.776h16.465c2.256,0,10.706-1.584,10.706-10.897V17.59c0-9.985-8.162-11.953-15.649-11.953
		h-12.001c-1.296,0-1.584,1.248-1.584,2.304v31.107C278.248,40.104,279.543,40.776,280.312,40.776z M289.719,15.813L289.719,15.813
		c0.001-1.008,0.145-1.2,1.585-1.2c0.384,0,0.336,0,0.672,0c2.496,0,3.648,2.208,3.648,3.888v8.353c0,2.304-1.056,4.801-3.36,4.801
		c-0.336,0-0.528,0-0.816,0c-1.488,0-1.729-0.96-1.729-1.344V15.813z"/>
	<path fill="#E0B156" d="M311.319,40.776h6.433c1.776,0,1.729-1.344,1.729-2.592v-3.792c0-1.056-0.145-1.68-2.208-1.68h-6.865
		c-0.96,0-1.44,0.96-1.44,1.92v3.888C308.967,39.768,309.495,40.776,311.319,40.776z"/>
	<path fill="#E0B156" d="M336.28,41.4c6.24,0,10.465-1.2,11.09-1.824c0.527-0.528-1.537-8.257-2.354-8.064
		c-1.152,0.288-3.359,1.296-7.68,1.296c-3.842,0-4.465-1.968-4.465-5.521v-7.584c0-5.425,3.889-5.665,6.625-5.665
		c3.504,0,4.656,0.288,5.809,0.576c0.814,0.192,2.879-7.153,2.352-7.681c-0.623-0.624-3.023-1.824-9.312-1.824
		c-13.873,0-17.521,6.192-17.521,13.441v10.561C320.823,35.735,324.952,41.4,336.28,41.4z"/>
	<path fill="#E0B156" d="M354.327,40.776h6.432c1.777,0,1.73-1.344,1.73-2.592v-3.792c0-1.056-0.146-1.68-2.209-1.68h-6.863
		c-0.961,0-1.441,0.96-1.441,1.92v3.888C351.973,39.768,352.502,40.776,354.327,40.776z"/>
	<path fill="#E0B156" d="M30.539,79.357c4.38,0,5.82,0.36,7.26,0.72c1.02,0.24,3.6-8.939,2.94-9.6c-0.78-0.78-3.78-2.28-11.639-2.28
		c-17.34,0.001-21.9,7.741-21.9,16.8v13.199c0,8.28,5.16,15.359,19.319,15.359c7.8,0,13.08-1.5,13.859-2.28
		c0.66-0.659-1.92-10.317-2.94-10.079c-1.44,0.36-4.2,1.62-9.6,1.62c-4.8,0-5.58-2.46-5.58-6.899v-9.479
		C22.259,79.657,27.119,79.357,30.539,79.357z"/>
	<path fill="#E0B156" d="M79.258,94.297c2.22-1.26,6.3-4.68,6.3-10.621c0-8.1-6.06-14.82-17.939-14.82H49.26
		c-1.68,0-2.16,0.42-2.16,1.56v40.257c0,1.381-0.06,2.101,1.8,2.101h9.9c2.64,0,3.06-0.358,3.06-1.92V99.334
		c0-0.539,0.06-0.84,0.48-0.84h1.62c0.48,0,0.6,0,0.84,0.48l5.22,12c0.48,1.079,0.48,1.738,2.58,1.799h11.459
		c1.86,0.061,1.5-1.141,1.08-2.1l-6.36-15.299C78.479,94.657,78.418,94.776,79.258,94.297z M67.439,87.097h-4.14
		c-0.96,0-1.2-0.3-1.2-1.14v-5.28c0-0.479,0.18-1.08,1.08-1.08h3.18c2.94,0,4.38,1.74,4.38,3.6
		C70.739,85.837,69.179,87.097,67.439,87.097z"/>
	<path fill="#E0B156" d="M120.778,70.777c-0.479-1.439-0.96-1.92-3.06-1.92h-11.819c-2.1,0-2.64,0.48-3.06,1.92l-12.18,40.019
		c-0.48,1.5,0.12,1.979,1.2,1.979h8.58c1.56,0,1.8-0.358,2.16-1.56l1.62-5.399h12.359l1.62,5.399c0.36,1.199,0.48,1.56,2.16,1.56
		h10.08c2.16,0,3.12-0.06,2.52-1.979L120.778,70.777z M106.739,97.477l3.6-12.06l3.66,12.06H106.739z"/>
	<path fill="#E0B156" d="M165.597,68.857h-26.399c-1.56,0-1.62,0.84-1.62,1.98v39.837c0,1.621,1.32,2.101,2.1,2.101h10.739
		c0.6,0,1.26-0.539,1.26-1.739V98.256c0-0.84,0.72-1.5,1.68-1.5h7.8c0.66,0,2.58,0.181,2.94-1.979l0.3-7.319
		c0.12-0.78-0.24-1.62-1.92-1.62h-9.6c-0.66,0-1.32-0.42-1.32-1.38v-3.96c0-0.48,0.24-0.96,1.56-0.96h11.339
		c2.04,0,2.76-0.36,2.76-2.28v-6.78C167.217,69.638,167.037,68.857,165.597,68.857z"/>
	<path fill="#E0B156" d="M207.656,68.857h-32.218c-1.68,0-2.76,0.18-2.76,1.62v7.44c0,0.84,0,1.56,1.68,1.56h8.1
		c0.96,0,1.38,0.18,1.38,1.14v30.178c0,1.74,0.66,1.979,3.06,1.979h8.64c2.16,0,3.06-0.42,3.06-1.979V80.617
		c0-0.96,0.42-1.14,1.38-1.14h8.76c1.68,0,1.68-0.72,1.68-1.56v-7.44C210.417,69.038,209.336,68.857,207.656,68.857z"/>
	<path fill="#E0B156" d="M266.396,101.676c0-7.619-3.9-9.659-6-10.919c3.12-1.86,5.28-5.28,5.28-10.8c0-7.02-5.1-11.1-16.799-11.1
		h-17.939c-1.86,0-1.8,0.72-1.8,2.1v40.258c0,1.14,0.48,1.56,2.16,1.56h20.159C261.296,112.775,266.396,109.176,266.396,101.676z
		 M242.817,79.117c0-0.48,0.18-1.08,1.08-1.08h3.18c2.28,0,4.32,0.48,4.32,3.54c0,3.48-2.34,3.84-4.08,3.84h-3.3
		c-0.96,0-1.2-0.3-1.2-1.14V79.117z M247.197,103.536h-3.18c-0.9,0-1.08-0.6-1.08-1.08v-5.158c0-0.84,0.24-1.141,1.2-1.141h3.3
		c1.74,0,4.68,0.359,4.68,3.84C252.116,103.057,249.477,103.536,247.197,103.536z"/>
	<path fill="#E0B156" d="M300.416,70.777c-0.48-1.439-0.96-1.92-3.06-1.92h-11.82c-2.1,0-2.64,0.48-3.06,1.92l-12.18,40.019
		c-0.48,1.5,0.12,1.979,1.2,1.979h8.58c1.56,0,1.8-0.358,2.16-1.56l1.62-5.399h12.359l1.62,5.399c0.36,1.199,0.48,1.56,2.16,1.56
		h10.08c2.16,0,3.12-0.06,2.52-1.979L300.416,70.777z M286.376,97.477l3.6-12.06l3.66,12.06H286.376z"/>
	<path fill="#E0B156" d="M350.575,94.297c2.221-1.26,6.299-4.68,6.299-10.621c0-8.1-6.059-14.82-17.938-14.82h-18.359
		c-1.68,0-2.16,0.42-2.16,1.56v40.257c0,1.381-0.06,2.101,1.8,2.101h9.901c2.639,0,3.059-0.358,3.059-1.92V99.334
		c0-0.539,0.061-0.84,0.48-0.84h1.619c0.479,0,0.602,0,0.84,0.48l5.221,12c0.48,1.079,0.48,1.738,2.58,1.799h11.459
		c1.859,0.061,1.5-1.141,1.08-2.1l-6.359-15.299C349.793,94.657,349.735,94.776,350.575,94.297z M338.754,87.097h-4.141
		c-0.959,0-1.199-0.3-1.199-1.14v-5.28c0-0.479,0.18-1.08,1.08-1.08h3.18c2.939,0,4.381,1.74,4.381,3.6
		C342.055,85.837,340.495,87.097,338.754,87.097z"/>
	<path fill="#E0B156" d="M396.114,68.857h-32.219c-1.68,0-2.76,0.18-2.76,1.62v7.44c0,0.84,0,1.56,1.68,1.56h8.1
		c0.961,0,1.381,0.18,1.381,1.14v30.178c0,1.74,0.66,1.979,3.061,1.979h8.641c2.16,0,3.059-0.42,3.059-1.979V80.617
		c0-0.96,0.422-1.14,1.381-1.14h8.76c1.68,0,1.68-0.72,1.68-1.56v-7.44C398.874,69.038,397.793,68.857,396.114,68.857z"/>
	<path fill="#E0B156" d="M430.915,101.616h-10.619c-1.262,0-2.461,0.061-2.461-1.318v-3.301c0-0.84,0.721-1.379,1.68-1.379h8.221
		c0.66,0,2.76,0.18,2.939-1.98l0.539-7.32c0.062-0.78-0.24-1.62-1.92-1.62h-10.26c-0.658,0-1.318-0.42-1.318-1.38v-2.82
		c0-0.48,0.24-0.96,1.561-0.96h11.34c1.68,0,2.76-0.18,2.76-1.62v-7.44c0-0.84-0.18-1.62-1.619-1.62h-26.398
		c-1.561,0-1.621,0.84-1.621,1.98v39.837c0,1.621,1.32,2.101,2.1,2.101h27.602c0.6,0,1.26-0.539,1.26-1.739v-7.859
		C434.694,101.977,433.553,101.616,430.915,101.616z"/>
	<path fill="#E0B156" d="M476.211,68.857h-9.658c-1.199-0.18-1.859,1.02-1.859,1.92v15.54c0,1.68-0.721,1.74-1.262,0.9
		l-10.979-17.099c-0.721-0.9-0.779-1.26-2.939-1.26h-8.039c-1.561,0-1.682,1.62-1.682,1.92v40.26c0,1.92,1.98,1.738,2.641,1.738
		h8.221c2.279,0,2.641-0.299,2.641-2.1v-15.6c0-1.619,0.6-1.141,1.32-0.061l10.799,16.318c0.721,1.08,1.381,1.562,3,1.621
		l7.92,0.238c1.561,0.061,1.68-0.898,1.68-2.52V70.837C478.012,69.458,477.534,68.857,476.211,68.857z"/>
	<path fill="#E0B156" d="M499.252,68.857h-15c-1.619,0-1.979,1.56-1.979,2.88v38.879c0,1.319,1.619,2.159,2.58,2.159h20.578
		c2.82,0,13.381-1.979,13.381-13.618v-15.36C518.813,71.317,508.614,68.857,499.252,68.857z M503.993,95.377c0,2.879-1.32,6-4.199,6
		c-0.42,0-0.66,0-1.02,0c-1.861,0-2.16-1.201-2.16-1.682V81.577c0-1.26,0.18-1.5,1.979-1.5c0.48,0,0.42,0,0.84,0
		c3.119,0,4.561,2.76,4.561,4.86V95.377z"/>
	<path fill="#E0B156" d="M549.471,101.616h-10.619c-1.26,0-2.461,0.061-2.461-1.318v-3.301c0-0.84,0.723-1.379,1.682-1.379h8.221
		c0.658,0,2.76,0.18,2.939-1.98l0.539-7.32c0.061-0.78-0.24-1.62-1.92-1.62h-10.26c-0.66,0-1.32-0.42-1.32-1.38v-2.82
		c0-0.48,0.24-0.96,1.561-0.96h11.34c1.68,0,2.76-0.18,2.76-1.62v-7.44c0-0.84-0.18-1.62-1.619-1.62h-26.398
		c-1.561,0-1.619,0.84-1.619,1.98v39.837c0,1.621,1.318,2.101,2.1,2.101h27.6c0.6,0,1.26-0.539,1.26-1.739v-7.859
		C553.25,101.977,552.112,101.616,549.471,101.616z"/>
	<path fill="#E0B156" d="M589.311,94.297c2.221-1.26,6.301-4.68,6.301-10.621c0-8.1-6.061-14.82-17.939-14.82h-18.359
		c-1.68,0-2.158,0.42-2.158,1.56v40.257c0,1.381-0.062,2.101,1.799,2.101h9.898c2.641,0,3.061-0.358,3.061-1.92V99.334
		c0-0.539,0.061-0.84,0.48-0.84h1.619c0.48,0,0.602,0,0.84,0.48l5.221,12c0.479,1.079,0.479,1.738,2.58,1.799h11.459
		c1.859,0.061,1.5-1.141,1.08-2.1l-6.359-15.299C588.532,94.657,588.471,94.776,589.311,94.297z M577.493,87.097h-4.141
		c-0.961,0-1.199-0.3-1.199-1.14v-5.28c0-0.479,0.18-1.08,1.08-1.08h3.18c2.938,0,4.379,1.74,4.379,3.6
		C580.792,85.837,579.233,87.097,577.493,87.097z"/>
	<path fill="#E0B156" d="M619.731,83.497c-2.34-1.08-4.02-1.92-4.02-2.7c0-1.2,1.318-1.62,4.02-1.62c2.041,0,6.42,0.9,8.58,1.38
		c2.1,0.48,3.898-10.56,2.461-11.04c-1.201-0.42-3.66-1.32-12.061-1.32c-10.439,0-18.301,3.96-18.301,13.379
		s8.041,12.6,13.141,14.758c2.4,1.021,4.199,1.801,4.199,2.94c0,1.56-1.92,2.101-5.398,2.101c-6.539,0-9.539-1.439-11.221-1.439
		c-1.318,0-1.561,10.499-0.84,11.158c1.32,1.261,6.359,2.521,14.639,2.521c7.74,0,18.779-1.561,18.779-13.859
		C633.709,90.157,625.071,86.017,619.731,83.497z"/>
	<path fill="#E0B156" d="M278.61,149.495h-11.857c-0.672,0-0.672,0.672-0.672,1.151s0,4.226,0,4.944c0,1.104,0.288,1.15,0.96,1.15
		l1.68,0.049c0.864,0.049,0.912,0.48,0.912,1.008v2.881c0,0.623-0.24,2.111-2.64,2.111c-2.544,0-3.168-1.968-3.168-5.52v-7.969
		c0-5.426,3.888-5.666,6.625-5.666c3.504,0,4.656,0.289,5.809,0.576c0.816,0.192,2.88-7.152,2.352-7.68
		c-0.624-0.625-3.024-1.824-9.313-1.824c-13.873,0-17.521,6.191-17.521,13.44v10.562c0,6.625,4.128,12.289,15.458,12.289
		c11.905,0,13.537-6,13.537-11.232v-8.305C280.77,149.831,280.53,149.495,278.61,149.495z"/>
	<path fill="#E0B156" d="M310.001,135.236h-7.633c-1.344,0-1.728,0.337-1.728,1.248v19.972c0,2.592-0.384,4.801-3.024,4.801
		c-1.488,0-2.88-1.633-2.88-4.705v-19.729c0-1.249-0.72-1.585-2.448-1.585h-7.297c-1.344,0-1.728,0.336-1.728,1.248v23.811
		c0,10.562,9.889,10.705,14.401,10.705c4.128,0,14.833,0.24,14.833-11.521v-22.657C312.498,135.573,311.682,135.236,310.001,135.236
		z"/>
	<path fill="#E0B156" d="M327.616,135.236h-8.306c-1.68,0-2.063,0.289-2.063,1.537v32.019c0,1.248,0.72,1.584,2.448,1.584h7.632
		c1.344,0,1.729-0.336,1.729-1.248v-32.211C329.055,135.812,328.768,135.236,327.616,135.236z"/>
	<path fill="#E0B156" d="M354.401,161.879h-8.307c-0.768,0-1.104-0.145-1.104-0.912v-24.146c0-1.248-0.719-1.585-2.447-1.585h-7.633
		c-1.344,0-1.729,0.337-1.729,1.248v32.211c0,1.104-0.049,1.681,1.439,1.681h18.914c1.344,0,2.209-0.144,2.209-1.295v-5.953
		C355.745,162.456,355.745,161.879,354.401,161.879z"/>
	<path fill="#E0B156" d="M372.831,135.236h-12c-1.297,0-1.584,1.248-1.584,2.306v31.106c0,1.056,1.295,1.728,2.062,1.728h16.467
		c2.256,0,10.705-1.584,10.705-10.896V147.19C388.481,137.206,380.319,135.236,372.831,135.236z M376.624,156.456
		c0,2.303-1.057,4.801-3.361,4.801c-0.336,0-0.525,0-0.814,0c-1.488,0-1.729-0.961-1.729-1.346v-14.496
		c0-1.008,0.145-1.201,1.584-1.201c0.385,0,0.336,0,0.672,0c2.496,0,3.648,2.209,3.648,3.889V156.456z"/>
</g>
</svg>
