<?xml version="1.0" encoding="utf-8"?>
<!-- Generator: Adobe Illustrator 16.0.0, SVG Export Plug-In . SVG Version: 6.00 Build 0)  -->
<!DOCTYPE svg PUBLIC "-//W3C//DTD SVG 1.1//EN" "http://www.w3.org/Graphics/SVG/1.1/DTD/svg11.dtd">
<svg version="1.1" id="Layer_1" xmlns="http://www.w3.org/2000/svg" xmlns:xlink="http://www.w3.org/1999/xlink" x="0px" y="0px"
	 width="524.037px" height="25.551px" viewBox="0 0 524.037 25.551" enable-background="new 0 0 524.037 25.551"
	 xml:space="preserve">
<g>
	<path fill="#E0B156" d="M13.028,25.078H1.451C0.911,25.078,0,24.605,0,23.863V1.991c0-0.742,0.203-1.62,1.114-1.62h8.438
		c5.266,0,11.003,1.384,11.003,8.405v8.641C20.555,23.964,14.615,25.078,13.028,25.078z M12.218,9.417
		c0-1.181-0.81-2.734-2.565-2.734c-0.236,0-0.203,0-0.473,0c-1.013,0-1.114,0.135-1.114,0.844V17.72c0,0.27,0.168,0.945,1.215,0.945
		c0.203,0,0.338,0,0.574,0c1.62,0,2.363-1.755,2.363-3.375V9.417z"/>
	<path fill="#E0B156" d="M28.823,25.078H24.3c-1.283,0-1.654-0.709-1.654-1.586v-2.734c0-0.675,0.337-1.35,1.013-1.35h4.826
		c1.452,0,1.553,0.439,1.553,1.181v2.667C30.038,24.133,30.071,25.078,28.823,25.078z"/>
	<path fill="#E0B156" d="M48.871,6.683c-0.81-0.203-1.62-0.405-4.084-0.405c-1.924,0-4.658,0.169-4.658,3.983v5.333
		c0,2.498,0.439,3.881,3.139,3.881c3.038,0,4.59-0.708,5.4-0.911c0.574-0.135,2.025,5.299,1.654,5.67
		c-0.439,0.438-3.409,1.283-7.797,1.283c-7.965,0-10.868-3.983-10.868-8.641V9.451C31.657,4.354,34.222,0,43.977,0
		c4.421,0,6.109,0.844,6.548,1.283C50.896,1.654,49.445,6.818,48.871,6.683z"/>
	<path fill="#E0B156" d="M59.738,25.078h-4.523c-1.283,0-1.654-0.709-1.654-1.586v-2.734c0-0.675,0.337-1.35,1.013-1.35H59.4
		c1.452,0,1.553,0.439,1.553,1.181v2.667C60.953,24.133,60.986,25.078,59.738,25.078z"/>
	<path fill="#E0B156" d="M90.282,6.683c-0.81-0.203-1.62-0.405-4.084-0.405c-1.924,0-4.658,0.169-4.658,3.983v5.333
		c0,2.498,0.439,3.881,3.139,3.881c3.038,0,4.59-0.708,5.4-0.911c0.574-0.135,2.025,5.299,1.654,5.67
		c-0.439,0.438-3.409,1.283-7.797,1.283c-7.965,0-10.868-3.983-10.868-8.641V9.451C73.068,4.354,75.633,0,85.387,0
		c4.422,0,6.109,0.844,6.548,1.283C92.307,1.654,90.855,6.818,90.282,6.683z"/>
	<path fill="#E0B156" d="M112.928,14.683c-0.473,0.27-0.439,0.202-0.27,0.607l3.578,8.607c0.236,0.54,0.439,1.215-0.607,1.181
		h-6.447C108,25.044,108,24.673,107.73,24.065l-2.937-6.75c-0.135-0.27-0.203-0.27-0.473-0.27h-0.911
		c-0.236,0-0.27,0.169-0.27,0.473v6.48c0,0.877-0.236,1.08-1.722,1.08H95.85c-1.046,0-1.013-0.405-1.013-1.181V1.249
		c0-0.642,0.27-0.878,1.215-0.878h10.329c6.683,0,10.092,3.78,10.092,8.337C116.472,12.05,114.177,13.974,112.928,14.683z
		 M105.671,6.413h-1.789c-0.506,0-0.607,0.337-0.607,0.607v2.97c0,0.473,0.135,0.641,0.675,0.641h2.329
		c0.979,0,1.856-0.708,1.856-2.194C108.135,7.392,107.325,6.413,105.671,6.413z"/>
	<path fill="#E0B156" d="M141.042,25.078h-5.67c-0.945,0-1.013-0.203-1.215-0.877l-0.911-3.038h-6.953l-0.911,3.038
		c-0.203,0.675-0.338,0.877-1.215,0.877h-4.827c-0.607,0-0.945-0.27-0.675-1.114l6.852-22.513c0.236-0.81,0.54-1.08,1.722-1.08
		h6.649c1.181,0,1.452,0.271,1.721,1.08l6.852,22.513C142.797,25.044,142.257,25.078,141.042,25.078z M129.735,9.687l-2.025,6.784
		h4.084L129.735,9.687z"/>
	<path fill="#E0B156" d="M159.503,6.379h-6.379c-0.742,0-0.877,0.27-0.877,0.54v2.228c0,0.54,0.371,0.776,0.743,0.776h5.4
		c0.945,0,1.147,0.473,1.08,0.911l-0.169,4.118c-0.203,1.215-1.283,1.114-1.654,1.114h-4.388c-0.54,0-0.945,0.371-0.945,0.844v7.189
		c0,0.675-0.371,0.979-0.708,0.979h-6.042c-0.438,0-1.181-0.27-1.181-1.181V1.485c0-0.642,0.034-1.114,0.911-1.114h14.851
		c0.81,0,0.912,0.439,0.912,0.912v3.814C161.056,6.177,160.65,6.379,159.503,6.379z"/>
	<path fill="#E0B156" d="M183.061,6.346h-4.928c-0.54,0-0.776,0.101-0.776,0.641v16.978c0,0.877-0.506,1.114-1.722,1.114h-4.86
		c-1.35,0-1.721-0.135-1.721-1.114V6.987c0-0.54-0.236-0.641-0.776-0.641h-4.557c-0.945,0-0.945-0.405-0.945-0.878V1.283
		c0-0.81,0.607-0.912,1.553-0.912h18.125c0.945,0,1.552,0.102,1.552,0.912v4.185C184.006,5.94,184.006,6.346,183.061,6.346z"/>
	<path fill="#E0B156" d="M207.765,25.078h-11.341c-0.945,0-1.215-0.236-1.215-0.877V1.553c0-0.776-0.034-1.182,1.013-1.182h10.092
		c6.582,0,9.451,2.295,9.451,6.245c0,3.105-1.215,5.029-2.97,6.075c1.181,0.709,3.375,1.856,3.375,6.143
		C216.169,23.053,213.301,25.078,207.765,25.078z M205.301,5.536h-1.789c-0.506,0-0.608,0.337-0.608,0.607v2.903
		c0,0.472,0.135,0.641,0.675,0.641h1.856c0.979,0,2.295-0.203,2.295-2.16C207.731,5.806,206.584,5.536,205.301,5.536z
		 M205.504,15.729h-1.856c-0.54,0-0.675,0.169-0.675,0.642v2.902c0,0.271,0.101,0.608,0.607,0.608h1.789
		c1.283,0,2.768-0.27,2.768-1.992C208.137,15.931,206.483,15.729,205.504,15.729z"/>
	<path fill="#E0B156" d="M239.66,25.078h-5.67c-0.945,0-1.013-0.203-1.215-0.877l-0.911-3.038h-6.953l-0.911,3.038
		c-0.203,0.675-0.338,0.877-1.215,0.877h-4.827c-0.607,0-0.945-0.27-0.675-1.114l6.852-22.513c0.236-0.81,0.54-1.08,1.721-1.08
		h6.649c1.182,0,1.451,0.271,1.722,1.08l6.852,22.513C241.415,25.044,240.875,25.078,239.66,25.078z M228.353,9.687l-2.025,6.784
		h4.084L228.353,9.687z"/>
	<path fill="#E0B156" d="M261.766,14.683c-0.473,0.27-0.439,0.202-0.27,0.607l3.578,8.607c0.236,0.54,0.439,1.215-0.607,1.181
		h-6.447c-1.181-0.034-1.181-0.405-1.451-1.013l-2.937-6.75c-0.135-0.27-0.203-0.27-0.473-0.27h-0.911
		c-0.236,0-0.27,0.169-0.27,0.473v6.48c0,0.877-0.236,1.08-1.722,1.08h-5.569c-1.046,0-1.013-0.405-1.013-1.181V1.249
		c0-0.642,0.27-0.878,1.215-0.878h10.329c6.683,0,10.092,3.78,10.092,8.337C265.31,12.05,263.015,13.974,261.766,14.683z
		 M254.509,6.413h-1.789c-0.506,0-0.607,0.337-0.607,0.607v2.97c0,0.473,0.135,0.641,0.675,0.641h2.329
		c0.979,0,1.856-0.708,1.856-2.194C256.973,7.392,256.163,6.413,254.509,6.413z"/>
	<path fill="#E0B156" d="M286.437,6.346h-4.928c-0.54,0-0.776,0.101-0.776,0.641v16.978c0,0.877-0.507,1.114-1.722,1.114h-4.86
		c-1.35,0-1.721-0.135-1.721-1.114V6.987c0-0.54-0.236-0.641-0.776-0.641h-4.557c-0.945,0-0.945-0.405-0.945-0.878V1.283
		c0-0.81,0.607-0.912,1.553-0.912h18.125c0.945,0,1.553,0.102,1.553,0.912v4.185C287.382,5.94,287.382,6.346,286.437,6.346z"/>
	<path fill="#E0B156" d="M305.472,25.078h-15.526c-0.438,0-1.182-0.27-1.182-1.181V1.485c0-0.642,0.034-1.114,0.912-1.114h14.851
		c0.811,0,0.911,0.439,0.911,0.912v4.185c0,0.81-0.607,0.912-1.553,0.912h-6.379c-0.742,0-0.877,0.27-0.877,0.54v1.586
		c0,0.54,0.371,0.776,0.742,0.776h5.771c0.945,0,1.114,0.472,1.08,0.911l-0.304,4.118c-0.102,1.215-1.282,1.114-1.654,1.114h-4.624
		c-0.54,0-0.944,0.304-0.944,0.776v1.856c0,0.776,0.675,0.743,1.384,0.743h5.974c1.485,0,2.127,0.203,2.127,0.877v4.421
		C306.181,24.774,305.809,25.078,305.472,25.078z"/>
	<path fill="#E0B156" d="M328.928,25.314l-4.455-0.135c-0.911-0.034-1.283-0.304-1.688-0.911l-6.076-9.181
		c-0.404-0.607-0.742-0.877-0.742,0.034v8.776c0,1.012-0.202,1.181-1.485,1.181h-4.624c-0.371,0-1.485,0.101-1.485-0.979V1.451
		c0-0.168,0.068-1.08,0.945-1.08h4.523c1.215,0,1.248,0.203,1.653,0.709l6.177,9.62c0.304,0.472,0.709,0.438,0.709-0.506V1.451
		c0-0.506,0.371-1.181,1.046-1.08h5.435c0.742,0,1.013,0.338,1.013,1.114v22.412C329.874,24.808,329.806,25.348,328.928,25.314z"/>
	<path fill="#E0B156" d="M345.297,25.078H333.72c-0.54,0-1.452-0.473-1.452-1.215V1.991c0-0.742,0.203-1.62,1.114-1.62h8.438
		c5.265,0,11.003,1.384,11.003,8.405v8.641C352.824,23.964,346.883,25.078,345.297,25.078z M344.487,9.417
		c0-1.181-0.81-2.734-2.565-2.734c-0.236,0-0.202,0-0.473,0c-1.012,0-1.113,0.135-1.113,0.844V17.72c0,0.27,0.169,0.945,1.215,0.945
		c0.202,0,0.338,0,0.574,0c1.62,0,2.362-1.755,2.362-3.375V9.417z"/>
	<path fill="#E0B156" d="M371.487,25.078H355.96c-0.438,0-1.182-0.27-1.182-1.181V1.485c0-0.642,0.034-1.114,0.912-1.114h14.851
		c0.811,0,0.911,0.439,0.911,0.912v4.185c0,0.81-0.607,0.912-1.553,0.912h-6.379c-0.742,0-0.878,0.27-0.878,0.54v1.586
		c0,0.54,0.372,0.776,0.743,0.776h5.771c0.945,0,1.114,0.472,1.08,0.911l-0.304,4.118c-0.102,1.215-1.282,1.114-1.654,1.114h-4.624
		c-0.54,0-0.944,0.304-0.944,0.776v1.856c0,0.776,0.675,0.743,1.384,0.743h5.974c1.485,0,2.127,0.203,2.127,0.877v4.421
		C372.196,24.774,371.825,25.078,371.487,25.078z"/>
	<path fill="#E0B156" d="M392.48,14.683c-0.473,0.27-0.438,0.202-0.271,0.607l3.578,8.607c0.236,0.54,0.438,1.215-0.607,1.181
		h-6.447c-1.181-0.034-1.181-0.405-1.451-1.013l-2.937-6.75c-0.135-0.27-0.202-0.27-0.472-0.27h-0.912
		c-0.236,0-0.27,0.169-0.27,0.473v6.48c0,0.877-0.236,1.08-1.722,1.08h-5.569c-1.046,0-1.013-0.405-1.013-1.181V1.249
		c0-0.642,0.271-0.878,1.216-0.878h10.328c6.683,0,10.092,3.78,10.092,8.337C396.024,12.05,393.729,13.974,392.48,14.683z
		 M385.223,6.413h-1.789c-0.506,0-0.607,0.337-0.607,0.607v2.97c0,0.473,0.135,0.641,0.675,0.641h2.329
		c0.979,0,1.856-0.708,1.856-2.194C387.687,7.392,386.877,6.413,385.223,6.413z"/>
	<path fill="#E0B156" d="M405.541,25.551c-4.658,0-7.493-0.709-8.235-1.418c-0.405-0.371-0.271-6.278,0.473-6.278
		c0.944,0,2.632,0.81,6.312,0.81c1.957,0,3.037-0.304,3.037-1.181c0-0.641-1.013-1.08-2.362-1.654
		c-2.869-1.215-7.392-3.004-7.392-8.303S401.793,0,407.667,0c4.726,0,6.109,0.506,6.784,0.743c0.811,0.27-0.202,6.48-1.384,6.21
		c-1.215-0.27-3.679-0.776-4.826-0.776c-1.519,0-2.262,0.236-2.262,0.911c0,0.439,0.945,0.912,2.262,1.519
		c3.004,1.417,7.864,3.747,7.864,9.147C416.105,24.673,409.895,25.551,405.541,25.551z"/>
	<path fill="#E0B156" d="M438.784,25.517c-7.966,0-10.868-3.983-10.868-8.641V9.451c0-5.097,2.565-9.451,12.319-9.451
		c4.422,0,6.109,0.844,6.548,1.283c0.372,0.371-1.08,5.535-1.653,5.4c-0.811-0.203-1.62-0.405-4.084-0.405
		c-1.924,0-4.658,0.169-4.658,3.983v5.603c0,2.498,0.438,3.881,2.228,3.881c1.688,0,1.856-1.046,1.856-1.485v-2.025
		c0-0.371-0.033-0.675-0.641-0.708l-1.182-0.034c-0.473,0-0.675-0.034-0.675-0.81c0-0.506,0-3.139,0-3.477
		c0-0.338,0-0.81,0.472-0.81h8.337c1.351,0,1.52,0.236,1.52,1.384v5.839C448.302,21.298,447.155,25.517,438.784,25.517z"/>
	<path fill="#E0B156" d="M460.857,25.517c-3.173,0-10.126-0.102-10.126-7.527V1.249c0-0.642,0.271-0.878,1.215-0.878h5.131
		c1.215,0,1.721,0.236,1.721,1.114v13.872c0,2.16,0.979,3.308,2.025,3.308c1.856,0,2.127-1.553,2.127-3.375V1.249
		c0-0.642,0.27-0.878,1.215-0.878h5.366c1.182,0,1.756,0.236,1.756,1.114v15.931C471.287,25.686,463.759,25.517,460.857,25.517z"/>
	<path fill="#E0B156" d="M481.039,25.078h-5.367c-1.215,0-1.722-0.236-1.722-1.114V1.451c0-0.877,0.271-1.08,1.452-1.08h5.839
		c0.81,0,1.013,0.405,1.013,1.182v22.648C482.253,24.842,481.983,25.078,481.039,25.078z"/>
	<path fill="#E0B156" d="M500.142,25.078h-13.299c-1.046,0-1.013-0.405-1.013-1.181V1.249c0-0.642,0.271-0.878,1.216-0.878h5.366
		c1.215,0,1.722,0.236,1.722,1.114v16.978c0,0.54,0.236,0.641,0.776,0.641h5.839c0.945,0,0.945,0.405,0.945,0.877v4.186
		C501.695,24.977,501.087,25.078,500.142,25.078z"/>
	<path fill="#E0B156" d="M516.51,25.078h-11.577c-0.54,0-1.452-0.473-1.452-1.215V1.991c0-0.742,0.203-1.62,1.114-1.62h8.438
		c5.265,0,11.003,1.384,11.003,8.405v8.641C524.037,23.964,518.096,25.078,516.51,25.078z M515.7,9.417
		c0-1.181-0.81-2.734-2.565-2.734c-0.236,0-0.202,0-0.473,0c-1.012,0-1.113,0.135-1.113,0.844V17.72c0,0.27,0.169,0.945,1.215,0.945
		c0.202,0,0.338,0,0.574,0c1.62,0,2.362-1.755,2.362-3.375V9.417z"/>
</g>
<g>
</g>
<g>
</g>
<g>
</g>
<g>
</g>
<g>
</g>
<g>
</g>
</svg>
