<?xml version="1.0" encoding="utf-8"?>
<!-- Generator: Adobe Illustrator 16.0.0, SVG Export Plug-In . SVG Version: 6.00 Build 0)  -->
<!DOCTYPE svg PUBLIC "-//W3C//DTD SVG 1.1//EN" "http://www.w3.org/Graphics/SVG/1.1/DTD/svg11.dtd">
<svg version="1.1" id="Layer_1" xmlns="http://www.w3.org/2000/svg" xmlns:xlink="http://www.w3.org/1999/xlink" x="0px" y="0px"
	 width="476.084px" height="300px" viewBox="161.958 20 476.084 300" enable-background="new 161.958 20 476.084 300"
	 xml:space="preserve">
<g>
	<polygon fill="#BF0000" points="185.469,64.722 176.489,92.361 200,75.278 223.511,92.361 214.531,64.722 238.042,47.639 
		208.98,47.639 200,20 191.02,47.639 161.958,47.639 	"/>
	<polygon fill="#BF0000" points="385.469,64.722 376.488,92.361 400,75.279 423.512,92.361 414.53,64.722 438.042,47.639 
		408.98,47.639 400,20 391.02,47.639 361.958,47.639 	"/>
	<polygon fill="#BF0000" points="585.47,64.722 576.488,92.361 600,75.279 623.512,92.361 614.53,64.722 638.042,47.639 
		608.98,47.639 600,20 591.02,47.639 561.958,47.639 	"/>
	<rect x="161.958" y="120" fill="#BF0000" width="476.084" height="80"/>
	<rect x="161.958" y="240" fill="#BF0000" width="476.084" height="80"/>
</g>
</svg>
